name analog
datacolumns 19
datarows 52
range 0.6725 0.6980000000000001
endheader
time	ground_force_vx	ground_force_vy	ground_force_vz	ground_force_px	ground_force_py	ground_force_pz	l_ground_force_vx	l_ground_force_vy	l_ground_force_vz	l_ground_force_px	l_ground_force_py	l_ground_force_pz	ground_torque_x	ground_torque_y	ground_torque_z	l_ground_torque_x	l_ground_torque_y	l_ground_torque_z
0.6725	-0.0	-0.0	-0.0	4.279030799865723	68.10176849365234	-401.6971435546875	-0.0689751282334327	-70.97464752197266	-421.9174499511719	-0.0	-0.0	-0.0	-0.0	-0.0	-0.0	35780.86328125	31003.568359375	-6727.6376953125
0.673	-0.0	-0.0	-0.0	4.474491119384766	68.78642272949219	-402.9673461914063	-0.3683575093746185	-71.15135192871094	-422.4734497070313	-0.0	-0.0	-0.0	-0.0	-0.0	-0.0	35817.890625	30998.078125	-6644.47314453125
0.6735	-0.0	-0.0	-0.0	4.260167121887207	68.789306640625	-403.674560546875	-0.3520315885543823	-71.09616088867188	-424.7867431640625	-0.0	-0.0	-0.0	-0.0	-0.0	-0.0	36148.62890625	30861.5390625	-6692.71826171875
0.674	-0.0	-0.0	-0.0	5.193346977233887	69.11214447021484	-405.4420166015625	-0.5874213576316833	-71.33052062988281	-426.5877685546875	-0.0	-0.0	-0.0	-0.0	-0.0	-0.0	36622.8359375	31174.4296875	-6645.64306640625
0.6745	-0.0	-0.0	-0.0	6.15747594833374	69.16519165039062	-408.0579528808594	-0.6019673347473145	-71.80552673339844	-428.2760314941406	-0.0	-0.0	-0.0	-0.0	-0.0	-0.0	36714.70703125	30848.603515625	-6711.4384765625
0.675	-0.0	-0.0	-0.0	6.831618785858154	69.16519165039062	-409.2548522949219	-0.7831591367721558	-71.68331146240234	-430.15478515625	-0.0	-0.0	-0.0	-0.0	-0.0	-0.0	37001.546875	30653.380859375	-6723.435546875
0.6755	-0.0	-0.0	-0.0	7.154184818267822	69.78910827636719	-409.9683227539063	-1.011603832244873	-72.05342864990234	-429.6707458496094	-0.0	-0.0	-0.0	-0.0	-0.0	-0.0	36876.79296875	30572.125	-6723.09375
0.676	-0.0	-0.0	-0.0	7.190160751342773	69.77169799804688	-409.830810546875	-1.41937255859375	-72.68875122070312	-429.5243225097656	-0.0	-0.0	-0.0	-0.0	-0.0	-0.0	36911.69921875	30466.83203125	-6747.44970703125
0.6765	-0.0	-0.0	-0.0	7.226682662963867	69.86003112792969	-411.4546508789063	-2.2159814834594727	-73.2532958984375	-431.6847229003906	-0.0	-0.0	-0.0	-0.0	-0.0	-0.0	36970.08984375	30516.1328125	-6913.8662109375
0.677	-0.0	-0.0	-0.0	7.261474132537842	70.35960388183594	-412.1610107421875	-2.590709686279297	-73.89098358154297	-432.6723937988281	-0.0	-0.0	-0.0	-0.0	-0.0	-0.0	37045.57421875	30634.88671875	-7098.4111328125
0.6775	-0.0	-0.0	-0.0	6.869328022003174	70.32388305664062	-415.1982421875	-3.123234748840332	-75.07344055175781	-435.04443359375	-0.0	-0.0	-0.0	-0.0	-0.0	-0.0	37165.60546875	30524.60546875	-7152.6796875
0.678	-0.0	-0.0	-0.0	7.261396884918213	70.91192626953125	-418.377197265625	-4.169406890869141	-75.77999114990234	-439.3026123046875	-0.0	-0.0	-0.0	-0.0	-0.0	-0.0	37564.1328125	30689.046875	-7254.31396484375
0.6785	-0.0	-0.0	-0.0	7.6365180015563965	71.69639587402344	-421.1313781738281	-4.630791664123535	-76.85762023925781	-444.190185546875	-0.0	-0.0	-0.0	-0.0	-0.0	-0.0	38630.66015625	31095.25	-7486.30224609375
0.679	-0.0	-0.0	-0.0	7.993432521820068	72.30377960205078	-424.3131103515625	-4.772407054901123	-78.16411590576172	-450.337158203125	-0.0	-0.0	-0.0	-0.0	-0.0	-0.0	39367.4453125	31031.189453125	-7444.87841796875
0.6795	-0.0	-0.0	-0.0	7.813882350921631	73.21147155761719	-426.2882080078125	-5.021215438842773	-79.31195068359375	-455.15478515625	-0.0	-0.0	-0.0	-0.0	-0.0	-0.0	39513.84375	31215.935546875	-7647.68359375
0.68	-0.0	-0.0	-0.0	7.349257469177246	73.72923278808594	-429.53411865234375	-5.713881015777588	-80.79623413085938	-457.804931640625	-0.0	-0.0	-0.0	-0.0	-0.0	-0.0	39675.734375	31399.779296875	-7606.41162109375
0.6805	-0.0	-0.0	-0.0	6.871017456054688	75.40071105957031	-432.64544677734375	-6.63495397567749	-82.36911010742188	-461.5724182128906	-0.0	-0.0	-0.0	-0.0	-0.0	-0.0	40372.84375	31570.564453125	-7785.85595703125
0.681	-0.0	-0.0	-0.0	5.87131929397583	75.8873062133789	-436.7356567382813	-7.664245128631592	-83.74552917480469	-468.7651977539063	-0.0	-0.0	-0.0	-0.0	-0.0	-0.0	41049.41015625	31875.41796875	-7845.67236328125
0.6815	-0.0	-0.0	-0.0	5.141310691833496	77.72402954101562	-443.5197143554688	-8.551311492919922	-85.33722686767578	-476.4458923339844	-0.0	-0.0	-0.0	-0.0	-0.0	-0.0	41419.27734375	32027.095703125	-8060.505859375
0.682	-0.0	-0.0	-0.0	5.617539882659912	78.50497436523438	-451.01080322265625	-8.658660888671875	-86.16470336914062	-480.8554382324219	-0.0	-0.0	-0.0	-0.0	-0.0	-0.0	42103.9921875	32277.96875	-8109.181640625
0.6825	-0.0	-0.0	-0.0	6.388077735900879	80.00405883789062	-459.3362731933594	-9.258113861083984	-87.04766845703125	-486.4423522949219	-0.0	-0.0	-0.0	-0.0	-0.0	-0.0	42553.078125	32478.931640625	-8180.92333984375
0.683	-0.0	-0.0	-0.0	7.407824516296387	80.98120880126953	-462.0353393554688	-9.476151466369627	-88.46361541748047	-488.9495239257813	-0.0	-0.0	-0.0	-0.0	-0.0	-0.0	42989.3828125	32502.818359375	-8168.81640625
0.6835	-0.0	-0.0	-0.0	7.831228733062744	81.64344787597656	-466.0447082519531	-10.182658195495604	-89.58952331542969	-490.7701416015625	-0.0	-0.0	-0.0	-0.0	-0.0	-0.0	43010.4609375	32568.076171875	-8241.67578125
0.684	-0.0	-0.0	-0.0	8.118156433105469	82.79830169677734	-469.00775146484375	-10.66090202331543	-90.7756118774414	-493.3986511230469	-0.0	-0.0	-0.0	-0.0	-0.0	-0.0	43436.43359375	32660.94921875	-8377.86328125
0.6845	-0.0	-0.0	-0.0	8.281283378601074	83.56526947021484	-470.3415222167969	-10.930750846862791	-91.88516235351562	-496.6301574707031	-0.0	-0.0	-0.0	-0.0	-0.0	-0.0	43511.58203125	32586.296875	-8467.3017578125
0.685	-0.0	-0.0	-0.0	8.688193321228027	84.10435485839844	-473.0636596679688	-11.142926216125488	-92.82609558105467	-497.75390625	-0.0	-0.0	-0.0	-0.0	-0.0	-0.0	43564.3203125	32787.58203125	-8493.681640625
0.6855	-0.0	-0.0	-0.0	9.203667640686035	84.53508758544922	-477.4804382324219	-11.236146926879885	-93.30213928222656	-499.1506652832031	-0.0	-0.0	-0.0	-0.0	-0.0	-0.0	43617.31640625	32663.642578125	-8551.7998046875
0.686	-0.0	-0.0	-0.0	10.254046440124512	85.55045318603516	-482.0118103027344	-11.44855785369873	-94.1852798461914	-501.0517272949219	-0.0	-0.0	-0.0	-0.0	-0.0	-0.0	44026.71484375	32568.3828125	-8570.3525390625
0.6865	-0.0	-0.0	-0.0	12.078028678894045	86.31280517578125	-486.2130432128906	-10.753777503967283	-95.15677642822266	-504.8732299804688	-0.0	-0.0	-0.0	-0.0	-0.0	-0.0	44013.390625	32814.765625	-8497.595703125
0.687	-0.0	-0.0	-0.0	13.12834644317627	87.60079193115234	-491.48974609375	-9.629642486572266	-95.8542709350586	-508.7353210449219	-0.0	-0.0	-0.0	-0.0	-0.0	-0.0	44256.58984375	32499.6640625	-8323.806640625
0.6875	-0.0	-0.0	-0.0	14.967092514038086	88.67868041992188	-495.8646240234375	-8.808197021484375	-96.5355987548828	-508.4998779296875	-0.0	-0.0	-0.0	-0.0	-0.0	-0.0	44466.6484375	32706.439453125	-8254.4287109375
0.6880000000000001	-0.0	-0.0	-0.0	16.400663375854492	89.75431823730469	-499.47705078125	-8.407388687133789	-97.10780334472656	-510.4832153320313	-0.0	-0.0	-0.0	-0.0	-0.0	-0.0	44565.77734375	32415.73046875	-8199.7216796875
0.6885	-0.0	-0.0	-0.0	16.846956253051758	91.37916564941406	-500.131103515625	-8.454201698303223	-98.15945434570312	-513.0931396484375	-0.0	-0.0	-0.0	-0.0	-0.0	-0.0	44742.8359375	32637.375	-8186.42236328125
0.6890000000000001	-0.0	-0.0	-0.0	17.224618911743164	92.10595703125	-502.5750732421875	-8.461671829223633	-99.30091857910156	-517.1475830078125	-0.0	-0.0	-0.0	-0.0	-0.0	-0.0	45316.5390625	32799.23828125	-8225.3427734375
0.6895	-0.0	-0.0	-0.0	17.567270278930664	92.7505340576172	-503.0638122558594	-8.925683975219727	-100.52362060546876	-519.2691650390625	-0.0	-0.0	-0.0	-0.0	-0.0	-0.0	45487.3671875	32729.416015625	-8271.6298828125
0.6900000000000001	-0.0	-0.0	-0.0	17.752891540527344	92.9630126953125	-505.29534912109375	-8.25617790222168	-101.3049774169922	-522.7612915039062	-0.0	-0.0	-0.0	-0.0	-0.0	-0.0	45964.546875	32807.32421875	-8278.2060546875
0.6905	-0.0	-0.0	-0.0	17.986419677734375	93.3876724243164	-508.00775146484375	-8.795552253723145	-101.85559844970705	-526.736083984375	-0.0	-0.0	-0.0	-0.0	-0.0	-0.0	46119.953125	32662.009765625	-8283.1396484375
0.6910000000000001	-0.0	-0.0	-0.0	18.43253898620605	93.7651824951172	-508.46282958984375	-9.095389366149902	-102.5335922241211	-527.198974609375	-0.0	-0.0	-0.0	-0.0	-0.0	-0.0	46167.48828125	32659.083984375	-8226.7802734375
0.6915	-0.0	-0.0	-0.0	18.492040634155277	94.4782257080078	-507.317626953125	-9.428985595703123	-104.13127136230467	-529.8284912109375	-0.0	-0.0	-0.0	-0.0	-0.0	-0.0	46471.3125	32480.50390625	-8361.7197265625
0.6920000000000001	-0.0	-0.0	-0.0	18.50051498413086	95.0168914794922	-507.6385498046875	-10.33266258239746	-105.45182037353516	-531.7579345703125	-0.0	-0.0	-0.0	-0.0	-0.0	-0.0	46693.44921875	32331.330078125	-8306.1552734375
0.6925	-0.0	-0.0	-0.0	19.048065185546875	95.51719665527344	-507.9578552246094	-10.467872619628906	-106.4152374267578	-533.2382202148438	-0.0	-0.0	-0.0	-0.0	-0.0	-0.0	46839.0078125	32227.291015625	-8451.9521484375
0.6930000000000001	-0.0	-0.0	-0.0	19.69390869140625	96.09474182128906	-511.6612854003906	-11.04607391357422	-107.399169921875	-535.3336181640625	-0.0	-0.0	-0.0	-0.0	-0.0	-0.0	47250.0859375	32392.482421875	-8394.30078125
0.6935	-0.0	-0.0	-0.0	19.79267692565918	96.39573669433594	-512.6931762695312	-11.96380615234375	-109.065185546875	-540.4389038085938	-0.0	-0.0	-0.0	-0.0	-0.0	-0.0	47748.8828125	32365.078125	-8527.306640625
0.6940000000000001	-0.0	-0.0	-0.0	20.573951721191406	97.185791015625	-513.6171875	-12.829523086547852	-109.7504653930664	-542.619873046875	-0.0	-0.0	-0.0	-0.0	-0.0	-0.0	48309.5234375	32695.11328125	-8650.7880859375
0.6945	-0.0	-0.0	-0.0	20.407224655151367	98.0770263671875	-514.096923828125	-13.251386642456056	-110.93203735351562	-544.1100463867188	-0.0	-0.0	-0.0	-0.0	-0.0	-0.0	48286.2578125	32519.72265625	-8696.1494140625
0.6950000000000001	-0.0	-0.0	-0.0	20.09447860717773	98.81285858154295	-515.7755126953125	-14.37114715576172	-111.84970092773438	-544.281982421875	-0.0	-0.0	-0.0	-0.0	-0.0	-0.0	48278.46875	32633.224609375	-8893.1484375
0.6955	-0.0	-0.0	-0.0	20.08363151550293	99.38040161132812	-517.4532470703125	-15.779155731201172	-112.53314208984376	-542.536865234375	-0.0	-0.0	-0.0	-0.0	-0.0	-0.0	47869.18359375	32961.42578125	-8909.3544921875
0.6960000000000001	-0.0	-0.0	-0.0	19.99432182312012	100.12686157226562	-517.8058471679688	-17.176977157592773	-113.82467651367188	-542.101318359375	-0.0	-0.0	-0.0	-0.0	-0.0	-0.0	47659.7890625	33334.9765625	-9225.9736328125
0.6965	-0.0	-0.0	-0.0	19.392051696777344	101.47462463378906	-519.7945556640625	-18.69573783874512	-114.95055389404295	-542.4508056640625	-0.0	-0.0	-0.0	-0.0	-0.0	-0.0	47557.21875	33694.66796875	-9505.3232421875
0.6970000000000001	-0.0	-0.0	-0.0	19.2683162689209	101.77505493164062	-525.0891723632812	-19.81568145751953	-115.9441146850586	-544.2393798828125	-0.0	-0.0	-0.0	-0.0	-0.0	-0.0	47836.265625	33684.3125	-9728.97265625
0.6975	-0.0	-0.0	-0.0	19.87126922607422	102.93502807617188	-530.2606811523438	-20.29232788085937	-116.54098510742188	-543.671142578125	-0.0	-0.0	-0.0	-0.0	-0.0	-0.0	47835.49609375	34028.6796875	-9784.9189453125
0.6980000000000001	-0.0	-0.0	-0.0	20.35034942626953	103.72710418701172	-530.0736694335938	-19.68334007263184	-116.89459228515624	-544.5464477539062	-0.0	-0.0	-0.0	-0.0	-0.0	-0.0	47806.29296875	33908.78125	-9776.9921875
